<svg width="1440" height="244" viewBox="0 0 1440 244" fill="none" xmlns="http://www.w3.org/2000/svg">
<rect x="-3" width="1443" height="244" fill="white"/>
<path d="M919.953 31C919.953 22.7157 913.223 16 904.922 16H0.0992984C-13.7357 16 -24.9512 27.1929 -24.9512 41V211C-24.9512 224.807 -13.7357 236 0.0992964 236H909.932C915.466 236 919.953 231.523 919.953 226C919.953 220.477 915.466 216 909.932 216H785.682C777.381 216 770.652 209.284 770.652 201C770.652 192.716 777.381 186 785.682 186H899.912C910.98 186 919.953 177.046 919.953 166C919.953 154.954 910.98 146 899.912 146H827.767C819.466 146 812.737 139.284 812.737 131C812.737 122.716 819.466 116 827.767 116H899.912C910.98 116 919.953 107.046 919.953 96C919.953 84.9543 910.98 76 899.912 76H778.668C770.367 76 763.638 69.2843 763.638 61C763.638 52.7157 770.367 46 778.668 46H904.922C913.223 46 919.953 39.2843 919.953 31Z" fill="#F2C787"/>
<path d="M870.854 166C870.854 177.046 879.826 186 890.894 186H967.047C978.115 186 987.088 177.046 987.088 166C987.088 154.954 978.115 146 967.047 146H890.894C879.826 146 870.854 154.954 870.854 166Z" fill="#F2C787"/>
<path d="M813.739 31C813.739 22.7157 820.468 16 828.769 16H977.068C985.369 16 992.098 22.7157 992.098 31C992.098 39.2843 985.369 46 977.068 46H828.769C820.468 46 813.739 39.2843 813.739 31Z" fill="#F2C787"/>
<path d="M895.904 15C895.904 6.71573 889.174 0 880.873 0H-23.9495C-37.7845 0 -49 11.1929 -49 25V195C-49 208.807 -37.7845 220 -23.9495 220H885.884C891.418 220 895.904 215.523 895.904 210C895.904 204.477 891.418 200 885.884 200H761.633C753.332 200 746.603 193.284 746.603 185C746.603 176.716 753.332 170 761.633 170H875.863C886.931 170 895.904 161.046 895.904 150C895.904 138.954 886.931 130 875.863 130H803.718C795.417 130 788.688 123.284 788.688 115C788.688 106.716 795.417 100 803.718 100H875.863C886.931 100 895.904 91.0457 895.904 80C895.904 68.9543 886.931 60 875.863 60H754.619C746.318 60 739.589 53.2843 739.589 45C739.589 36.7157 746.318 30 754.619 30H880.873C889.174 30 895.904 23.2843 895.904 15Z" fill="#FEE6C3"/>
<path d="M846.805 150C846.805 161.046 855.777 170 866.845 170H942.999C954.067 170 963.039 161.046 963.039 150C963.039 138.954 954.067 130 942.999 130H866.845C855.777 130 846.805 138.954 846.805 150Z" fill="#FEE6C3"/>
<path d="M789.69 15C789.69 6.71573 796.419 0 804.72 0H953.019C961.32 0 968.049 6.71573 968.049 15C968.049 23.2843 961.32 30 953.019 30H804.72C796.419 30 789.69 23.2843 789.69 15Z" fill="#FEE6C3"/>
</svg>
