<svg width="78" height="78" viewBox="0 0 78 78" fill="none" xmlns="http://www.w3.org/2000/svg">
<g filter="url(#filter0_d_601_382)">
<circle cx="39" cy="35" r="35" fill="white"/>
<circle cx="39" cy="35" r="34.75" stroke="black" stroke-opacity="0.25" stroke-width="0.5"/>
<path fill-rule="evenodd" clip-rule="evenodd" d="M39.8041 52C50.958 52 60 44.165 60 34.5C60 24.835 50.958 17 39.8041 17C28.6503 17 19.6083 24.835 19.6083 34.5C19.6083 38.827 21.4205 42.7871 24.4233 45.8417L19 51.3847L32.7823 50.9132C34.9693 51.616 37.335 52 39.8041 52ZM39.2431 36.6875C40.7923 36.6875 42.0481 35.4633 42.0481 33.9531C42.0481 32.443 40.7923 31.2188 39.2431 31.2188C37.694 31.2188 36.4382 32.443 36.4382 33.9531C36.4382 35.4633 37.694 36.6875 39.2431 36.6875ZM34.1942 33.9531C34.1942 35.4633 32.9383 36.6875 31.3892 36.6875C29.84 36.6875 28.5842 35.4633 28.5842 33.9531C28.5842 32.443 29.84 31.2188 31.3892 31.2188C32.9383 31.2188 34.1942 32.443 34.1942 33.9531ZM47.0971 36.6875C48.6462 36.6875 49.9021 35.4633 49.9021 33.9531C49.9021 32.443 48.6462 31.2188 47.0971 31.2188C45.5479 31.2188 44.2921 32.443 44.2921 33.9531C44.2921 35.4633 45.5479 36.6875 47.0971 36.6875Z" fill="#F4A261"/>
</g>
<defs>
<filter id="filter0_d_601_382" x="0" y="0" width="78" height="78" filterUnits="userSpaceOnUse" color-interpolation-filters="sRGB">
<feFlood flood-opacity="0" result="BackgroundImageFix"/>
<feColorMatrix in="SourceAlpha" type="matrix" values="0 0 0 0 0 0 0 0 0 0 0 0 0 0 0 0 0 0 127 0" result="hardAlpha"/>
<feOffset dy="4"/>
<feGaussianBlur stdDeviation="2"/>
<feComposite in2="hardAlpha" operator="out"/>
<feColorMatrix type="matrix" values="0 0 0 0 0 0 0 0 0 0 0 0 0 0 0 0 0 0 0.25 0"/>
<feBlend mode="normal" in2="BackgroundImageFix" result="effect1_dropShadow_601_382"/>
<feBlend mode="normal" in="SourceGraphic" in2="effect1_dropShadow_601_382" result="shape"/>
</filter>
</defs>
</svg>
