<svg width="370" height="306" viewBox="0 0 370 306" fill="none" xmlns="http://www.w3.org/2000/svg">
<path d="M180.698 90.8665C200.494 71.2515 227.237 63.6932 268.241 84.3926C309.245 105.092 327.66 87.0806 360.221 98.3801C423.07 120.161 360.497 182.949 331.296 200.985C282.066 231.387 244.862 292.394 188.896 311.945C135.059 330.749 56.8905 300.52 56.2178 246.508C55.8418 216.037 72.4029 196.987 115.893 177.87C166.483 155.63 148.189 123.077 180.698 90.8665Z" fill="#6F84AA"/>
<path d="M159.987 73.2334C179.784 53.6184 206.527 46.06 247.53 66.7594C288.534 87.4588 306.949 69.4474 339.51 80.747C402.359 102.528 339.786 165.316 310.585 183.352C261.355 213.754 224.151 274.761 168.185 294.312C114.348 313.116 36.1798 282.887 35.5071 228.875C35.1311 198.404 51.6922 179.354 95.1823 160.237C145.772 137.997 127.478 105.444 159.987 73.2334Z" fill="#FFD2AA"/>
</svg>
