<svg width="253" height="245" viewBox="0 0 253 245" fill="none" xmlns="http://www.w3.org/2000/svg">
<path d="M201.931 37.5939C167.137 39.3861 157.592 8.87971 128.278 1.7375C97.0602 -5.8721 82.9702 13.0603 79.6339 28.5398C77.0621 40.4724 71.6564 45.652 57.4093 48.9699C47.2546 50.8329 38.2566 56.1101 40.6134 70.5852C42.9703 85.0603 38.1931 93.7033 31.0817 98.8813C23.9703 104.06 17.3356 111.412 15.0021 120.99C11.0497 137.203 19.0844 154.185 33.8927 161.714C50.5332 169.995 59.4702 179.06 58.3014 197.861C58.0093 202.56 59.9702 227.56 83.7622 220.003C89.7712 218.095 114.629 205.224 129.714 229.112C133.47 235.06 142.771 240.913 151.27 242.987C174.062 248.541 197.364 231.739 199.678 208.604C202.188 191.486 205.302 183.459 223.807 189.438C242.117 195.354 253.074 169.869 242.829 156.795C228.61 142.06 245.577 115.56 250.965 93.4483C258.33 63.2239 232.302 34.3022 201.931 37.5939Z" fill="#6F84AA"/>
<path d="M187.931 37.5939C153.137 39.3861 143.592 8.87971 114.278 1.7375C83.0602 -5.8721 68.9702 13.0603 65.6339 28.5398C63.0621 40.4724 57.6564 45.652 43.4093 48.9699C33.2546 50.8329 24.2566 56.1101 26.6134 70.5852C28.9703 85.0603 24.1931 93.7033 17.0817 98.8813C9.97031 104.06 3.33561 111.412 1.00211 120.99C-2.95029 137.203 5.08441 154.185 19.8927 161.714C36.5332 169.995 45.4702 179.06 44.3014 197.861C44.0093 202.56 45.9702 227.56 69.7622 220.003C75.7712 218.095 100.629 205.224 115.714 229.112C119.47 235.06 128.771 240.913 137.27 242.987C160.062 248.541 183.364 231.739 185.678 208.604C188.188 191.486 191.302 183.459 209.807 189.438C228.117 195.354 239.074 169.869 228.829 156.795C214.61 142.06 231.577 115.56 236.965 93.4483C244.33 63.2239 218.302 34.3022 187.931 37.5939Z" fill="#FFD2AA"/>
</svg>
