<svg width="317" height="339" viewBox="0 0 317 339" fill="none" xmlns="http://www.w3.org/2000/svg">
<path d="M153.022 155.398C144.75 135.036 155.848 113.012 176.779 107.663C211.027 98.9124 243.005 105.89 231.714 78.096C219.601 48.2805 170.955 38.0155 117.861 52.3835C64.7652 66.7518 16.6949 122.711 43.8739 189.614C67.5079 247.79 126.458 291.936 212.395 285.087C298.549 278.223 308.306 232.092 299.758 211.05C293.063 194.57 276.822 168.277 230.483 177.358C184.144 186.44 161.294 175.76 153.022 155.398Z" fill="#6F84AA"/>
<path d="M144.83 144.731C136.558 124.369 147.656 102.345 168.587 96.997C202.836 88.2459 234.813 95.2235 223.522 67.4295C211.41 37.614 162.764 27.349 109.669 41.717C56.5737 56.0853 8.50335 112.044 35.6824 178.947C59.3164 237.124 118.266 281.269 204.204 274.421C290.357 267.556 300.114 221.426 291.566 200.384C284.871 183.904 268.631 157.61 222.291 166.692C175.952 175.773 153.102 165.093 144.83 144.731Z" fill="#FFD2AA"/>
</svg>
