<svg width="295" height="325" viewBox="0 0 295 325" fill="none" xmlns="http://www.w3.org/2000/svg">
<path d="M211.245 163.199C190.039 190.715 185.35 201.622 181.836 231.611C176.612 276.135 139.698 314.144 91.6649 288.445C54.7239 268.677 26.8306 225.766 28.5017 191.273C31.3137 133.188 82.6521 70.7033 138.868 55.677C187.33 42.7197 232.308 67.2477 236.538 108.939C237.973 123.079 231.557 136.845 211.245 163.199Z" fill="#6F84AA"/>
<path d="M200.031 153.236C178.341 180.372 173.459 191.194 169.413 221.116C163.401 265.541 125.819 302.889 78.2487 276.342C41.6641 255.922 14.5362 212.523 16.8186 178.065C20.6602 120.04 73.0986 58.4749 129.572 44.4479C178.257 32.3519 222.793 57.6737 226.282 99.4331C227.466 113.596 220.807 127.246 200.031 153.236Z" fill="#FFD2AA"/>
</svg>
