<svg width="24" height="24" viewBox="0 0 24 24" fill="none" xmlns="http://www.w3.org/2000/svg">
<path d="M10.4726 1.8413C10.8493 0.652817 12.5311 0.652819 12.9078 1.8413L14.7058 7.51361C14.874 8.04434 15.3667 8.40497 15.9234 8.40497H21.8078C23.0375 8.40497 23.557 9.97222 22.5707 10.7067L17.7562 14.2923C17.3196 14.6175 17.1371 15.1837 17.3016 15.7027L19.1276 21.4635C19.5024 22.6459 18.1419 23.6148 17.1471 22.8739L12.4531 19.3781C12.0004 19.041 11.38 19.041 10.9272 19.3781L6.2333 22.8739C5.2385 23.6148 3.87796 22.6459 4.25275 21.4635L6.07882 15.7027C6.24332 15.1837 6.06079 14.6175 5.62415 14.2923L0.809642 10.7067C-0.176599 9.97222 0.342882 8.40497 1.57258 8.40497H7.45697C8.01372 8.40497 8.50635 8.04434 8.67458 7.51361L10.4726 1.8413Z" fill="#FF7000"/>
</svg>
