<svg width="1440" height="767" viewBox="0 0 1440 767" fill="none" xmlns="http://www.w3.org/2000/svg">
<rect x="1" y="5" width="1440" height="761" fill="#F3DDB4"/>
<path fill-rule="evenodd" clip-rule="evenodd" d="M1 766.28H476.5C511.333 758.113 569.9 731.38 525.5 689.78C492.624 658.977 452.205 658.526 402.994 657.977C369.128 657.599 331.099 657.175 288.5 646.78C234.353 633.567 241.823 612.031 250.394 587.319C258.365 564.339 267.289 538.613 228.5 514.28C164.1 473.88 50 542.78 1 582.28V766.28Z" fill="#FFCA40"/>
<path d="M1 582V489.234C64 453.733 105.5 451.499 164.5 503C122.5 511 109 518.5 79.5 531.5C62.9208 538.806 19.3333 568.5 1 582Z" fill="#E8E8E8"/>
<circle cx="212" cy="174" r="35" fill="#E8E8E8"/>
<circle cx="189" cy="166" r="35" fill="#F8C132"/>
<circle cx="1285" cy="590" r="35" fill="#E8E8E8"/>
<circle cx="1303" cy="599" r="35" fill="#F8C132"/>
<path d="M1308.71 166.982C1309.15 160.93 1317.53 122.462 1309.78 114C1335.36 115.813 1347.78 122.5 1357.55 131.924C1373.01 146.839 1372.28 170.005 1375.38 183.302C1383.13 209.898 1404.07 225.614 1441.28 248.583C1387.01 252.21 1367.78 249.792 1334.29 230.449C1313.36 218.36 1306.38 198.414 1308.71 166.982Z" fill="#E8E8E8"/>
<path d="M1101.28 112.5C1076.78 89.5 1070.28 40.5 1102.78 5H1063.28C1054.48 9 1046.47 22.5394 1045.28 36C1041.78 75.5 1071.78 106.5 1101.28 112.5Z" fill="#E8E8E8"/>
<path d="M1116.51 121.696C1068.02 97.8678 1076.98 28.8279 1104.58 5H1441V250C1369.94 210.287 1375.9 180.349 1369.94 152.855C1363.97 125.362 1323.89 96.7015 1240.34 127.805C1215.72 136.97 1165 152.855 1116.51 121.696Z" fill="#FFCA40"/>
</svg>
