<svg width="541" height="304" viewBox="0 0 541 304" fill="none" xmlns="http://www.w3.org/2000/svg">
<path fill-rule="evenodd" clip-rule="evenodd" d="M0 303.28H475.5C510.333 295.113 568.9 268.38 524.5 226.78C491.624 195.977 451.205 195.526 401.994 194.977C368.128 194.599 330.099 194.175 287.5 183.78C233.353 170.567 240.823 149.031 249.394 124.319C257.365 101.339 266.289 75.6128 227.5 51.2796C163.1 10.8796 49 79.7796 0 119.28V303.28Z" fill="#FFCA40"/>
<path d="M0 119V26.2337C63 -9.26692 104.5 -11.501 163.5 39.9999C121.5 47.9999 108 55.4999 78.5 68.4999C61.9208 75.806 18.3333 105.5 0 119Z" fill="#E8E8E8"/>
</svg>
