<svg width="395" height="245" viewBox="0 0 395 245" fill="none" xmlns="http://www.w3.org/2000/svg">
<path d="M263.707 161.982C264.155 155.93 272.532 117.462 264.779 109C290.363 110.813 302.779 117.5 312.549 126.924C328.011 141.839 327.28 165.005 330.381 178.302C338.133 204.898 359.066 220.614 396.279 243.583C342.01 247.21 322.783 244.792 289.291 225.449C268.358 213.36 261.381 193.414 263.707 161.982Z" fill="#E8E8E8"/>
<path d="M56.2795 107.5C31.779 84.5 25.279 35.5 57.7795 0H18.279C9.479 4 1.47207 17.5394 0.279322 31C-3.22079 70.5 26.779 101.5 56.2795 107.5Z" fill="#E8E8E8"/>
<path d="M71.5111 116.696C23.0244 92.8678 31.9762 23.8279 59.5754 0H396V245C324.937 205.287 330.904 175.349 324.937 147.855C318.969 120.362 278.886 91.7015 195.339 122.805C170.723 131.97 119.998 147.855 71.5111 116.696Z" fill="#FFCA40"/>
</svg>
