<svg width="128" height="25" viewBox="0 0 128 25" fill="none" xmlns="http://www.w3.org/2000/svg">
<g filter="url(#filter0_d_207_3617)">
<path d="M11.6687 2.66095C11.9833 1.77283 13.2393 1.77283 13.5539 2.66096L14.7577 6.05931C14.8991 6.45856 15.2768 6.72541 15.7003 6.72541H19.3994C20.3889 6.72541 20.7774 8.00882 19.954 8.55755L17.1142 10.45C16.7331 10.704 16.5732 11.1844 16.7261 11.6161L17.8451 14.7749C18.1662 15.6812 17.1481 16.4742 16.3479 15.941L13.1658 13.8204C12.83 13.5966 12.3926 13.5966 12.0567 13.8204L8.87464 15.941C8.07453 16.4742 7.05643 15.6812 7.37748 14.7749L8.49645 11.6161C8.64937 11.1844 8.4895 10.704 8.1084 10.45L5.26862 8.55756C4.44521 8.00882 4.83367 6.72541 5.82317 6.72541H9.52225C9.94581 6.72541 10.3234 6.45856 10.4649 6.05931L11.6687 2.66095Z" fill="#F4A261"/>
<path d="M37.48 2.66095C37.7946 1.77283 39.0506 1.77283 39.3652 2.66095L40.569 6.05931C40.7104 6.45856 41.088 6.72541 41.5116 6.72541H45.2107C46.2002 6.72541 46.5887 8.00882 45.7652 8.55755L42.9255 10.45C42.5444 10.704 42.3845 11.1844 42.5374 11.6161L43.6564 14.7749C43.9774 15.6812 42.9593 16.4742 42.1592 15.941L38.9771 13.8204C38.6413 13.5966 38.2038 13.5966 37.868 13.8204L34.6859 15.941C33.8858 16.4742 32.8677 15.6812 33.1888 14.7749L34.3077 11.6161C34.4607 11.1844 34.3008 10.704 33.9197 10.45L31.0799 8.55756C30.2565 8.00882 30.645 6.72541 31.6345 6.72541H35.3335C35.7571 6.72541 36.1347 6.45856 36.2761 6.05931L37.48 2.66095Z" fill="#F4A261"/>
<path d="M63.2912 2.66095C63.6058 1.77283 64.8618 1.77283 65.1765 2.66096L66.3803 6.05931C66.5217 6.45856 66.8993 6.72541 67.3229 6.72541H71.022C72.0115 6.72541 72.3999 8.00882 71.5765 8.55755L68.7367 10.45C68.3556 10.704 68.1958 11.1844 68.3487 11.6161L69.4677 14.7749C69.7887 15.6812 68.7706 16.4742 67.9705 15.941L64.7884 13.8204C64.4526 13.5966 64.0151 13.5966 63.6793 13.8204L60.4972 15.941C59.6971 16.4742 58.679 15.6812 59 14.7749L60.119 11.6161C60.2719 11.1844 60.1121 10.704 59.731 10.45L56.8912 8.55756C56.0678 8.00882 56.4562 6.72541 57.4457 6.72541H61.1448C61.5684 6.72541 61.946 6.45856 62.0874 6.05931L63.2912 2.66095Z" fill="#F4A261"/>
<path d="M89.1025 2.66095C89.4171 1.77283 90.6731 1.77283 90.9877 2.66096L92.1916 6.05931C92.333 6.45856 92.7106 6.72541 93.1342 6.72541H96.8332C97.8227 6.72541 98.2112 8.00882 97.3878 8.55755L94.548 10.45C94.1669 10.704 94.007 11.1844 94.16 11.6161L95.2789 14.7749C95.6 15.6812 94.5819 16.4742 93.7818 15.941L90.5997 13.8204C90.2638 13.5966 89.8264 13.5966 89.4906 13.8204L86.3085 15.941C85.5084 16.4742 84.4903 15.6812 84.8113 14.7749L85.9303 11.6161C86.0832 11.1844 85.9233 10.704 85.5422 10.45L82.7025 8.55756C81.879 8.00882 82.2675 6.72541 83.257 6.72541H86.9561C87.3797 6.72541 87.7573 6.45856 87.8987 6.05931L89.1025 2.66095Z" fill="#F4A261"/>
<path d="M114.827 2.66096C115.141 1.77283 116.397 1.77283 116.712 2.66096L117.916 6.05931C118.057 6.45856 118.435 6.72541 118.859 6.72541H122.558C123.547 6.72541 123.936 8.00882 123.112 8.55755L120.272 10.45C119.891 10.704 119.731 11.1844 119.884 11.6161L121.003 14.7749C121.324 15.6812 120.306 16.4742 119.506 15.941L116.324 13.8204C115.988 13.5966 115.551 13.5966 115.215 13.8204L112.033 15.941C111.233 16.4742 110.215 15.6812 110.536 14.7749L111.655 11.6161C111.808 11.1844 111.648 10.704 111.267 10.45L108.427 8.55755C107.603 8.00882 107.992 6.72541 108.981 6.72541H112.68C113.104 6.72541 113.482 6.45856 113.623 6.05931L114.827 2.66096Z" fill="url(#paint0_linear_207_3617)"/>
</g>
<defs>
<filter id="filter0_d_207_3617" x="0.821289" y="1.99487" width="126.738" height="22.1184" filterUnits="userSpaceOnUse" color-interpolation-filters="sRGB">
<feFlood flood-opacity="0" result="BackgroundImageFix"/>
<feColorMatrix in="SourceAlpha" type="matrix" values="0 0 0 0 0 0 0 0 0 0 0 0 0 0 0 0 0 0 127 0" result="hardAlpha"/>
<feOffset dy="4"/>
<feGaussianBlur stdDeviation="2"/>
<feComposite in2="hardAlpha" operator="out"/>
<feColorMatrix type="matrix" values="0 0 0 0 0 0 0 0 0 0 0 0 0 0 0 0 0 0 0.25 0"/>
<feBlend mode="normal" in2="BackgroundImageFix" result="effect1_dropShadow_207_3617"/>
<feBlend mode="normal" in="SourceGraphic" in2="effect1_dropShadow_207_3617" result="shape"/>
</filter>
<linearGradient id="paint0_linear_207_3617" x1="111.602" y1="11.128" x2="119.688" y2="11.128" gradientUnits="userSpaceOnUse">
<stop stop-color="#F4A261"/>
<stop offset="0.48945" stop-color="#F4A261"/>
<stop offset="0.531134" stop-color="#FBFBFB"/>
</linearGradient>
</defs>
</svg>
